<?xml version="1.0" encoding="UTF-8"?>
<!DOCTYPE svg PUBLIC "-//W3C//DTD SVG 1.1//EN" "http://www.w3.org/Graphics/SVG/1.1/DTD/svg11.dtd">
<!-- Creator: CorelDRAW 2021.5 -->
<svg xmlns="http://www.w3.org/2000/svg" xml:space="preserve" width="8.26772in" height="8.26772in" version="1.1" style="shape-rendering:geometricPrecision; text-rendering:geometricPrecision; image-rendering:optimizeQuality; fill-rule:evenodd; clip-rule:evenodd"
viewBox="0 0 8267.72 8267.72"
 xmlns:xlink="http://www.w3.org/1999/xlink"
 xmlns:xodm="http://www.corel.com/coreldraw/odm/2003">
 <defs>
  <style type="text/css">
   <![CDATA[
    .fil0 {fill:#0287E3}
    .fil1 {fill:#0388E5}
    .fil2 {fill:white}
   ]]>
  </style>
 </defs>
 <g id="Layer_x0020_1">
  <metadata id="CorelCorpID_0Corel-Layer"/>
  <g id="_2547062386272">
   <g>
    <path class="fil0" d="M1696.33 4154.41c40.64,-18.3 184.89,-331.07 222.34,-355.17 13.75,4.99 13.43,7.93 22.6,23.84 97.62,169.32 206.86,341.67 305.89,509.44 17.79,30.15 21.78,30.9 0.63,64.2 -36.15,56.92 -207.19,343.23 -213.24,366.67l239.04 -0.69c96.48,-6.77 98.74,-60.21 168.74,-176.4 56.78,-94.25 623.11,-1027.28 639.3,-1073.73l-310.64 -0.35c-24.02,28.12 -64.8,108.02 -84.51,142.8l-210 356.51c-12.05,21.37 -29.22,56.96 -49.58,67.61 -19.73,-12.41 -259.04,-419.47 -278.78,-452.64 -85.55,-143.76 -49.89,-116.4 -324.73,-116.89 -77.54,-0.14 -49.54,-7.04 -132.14,129.52 -16.57,27.39 -30.36,56.87 -47.91,84.32 -17.31,27.08 -34.08,60.3 -49.81,88.04 -61.32,108.1 -64.54,70.62 -2.88,176.96 17.14,29.57 84.32,151.53 105.69,165.96z"/>
    <path class="fil0" d="M1574.57 4765.5c11.34,-8.63 90.67,-150.72 106.11,-178.54 71.04,-128.07 63.34,-84.9 -52.89,-286.56l-380.16 -636.43c-18.65,-30.83 -34.46,-57.53 -53.58,-88.95 -21.58,-35.45 -29.94,-59.75 -85.12,-62.81 -93.19,-5.16 -196.33,1.78 -290.8,0.75 7.27,23.8 617.81,1031.05 658.58,1097.59 24.89,40.64 70.64,125.86 97.85,154.96z"/>
   </g>
   <path class="fil1" d="M3388.39 4530.37l110.45 0.74c29.15,-43.37 94.54,-258.17 130.15,-331.84 12.88,16.3 52.04,133.04 64.7,165.07 14.55,36.8 49.46,142.73 65.37,166l113.03 -0.06c16.06,-16.38 13.37,-27.03 26.81,-61.88 8.69,-22.54 15.09,-41.32 22.92,-63.31 25.83,-72.63 131.96,-354.04 136.15,-391.43l-115.8 0.27c-43.68,113.06 -85.74,238.44 -124.06,354.47 -23.78,-28.52 -113.35,-297.66 -135.72,-354.69l-105.12 -0.46c-25.21,56.03 -111.25,323.03 -133.67,349.72 -21.22,-28.31 -105.74,-291.52 -124.24,-348.95l-121.97 -0.85c6.43,31.49 181.26,504.87 190.98,517.19z"/>
   <path class="fil0" d="M4414.57 4529.81l111.85 0.54c13.54,-34.19 0.6,-276.41 5.61,-338.67 20.67,10.71 4.53,1.2 17.07,16.09 84.41,100.28 177.52,226.07 262.84,322.1l119.89 1.78 0.34 -519.19 -111.76 1.31 -1.41 355.66 -67.15 -75.94c-8.51,-10.78 -14.7,-18.33 -21.82,-27.04l-169.52 -211.18c-32.28,-39.65 -41.15,-54.73 -144.79,-40.05l-1.15 514.58z"/>
   <path class="fil2" d="M6469.26 4107.75c106.64,-8.35 214.78,-5.24 230.5,108.71 6.61,47.94 7.05,119.87 -11.89,162.86 -38.6,87.62 -326.18,115.64 -347.63,-47.85 -16.4,-124.96 1.76,-213.77 129.02,-223.72zm-26.43 -99.5c-283.78,24.66 -232.85,362.63 -172.53,441.72 77.35,101.41 208.37,100.38 331.97,88.6 59.69,-5.69 106.16,-22.01 148.43,-59.81 1.32,-1.18 5.15,-4.49 6.44,-5.7 64.26,-59.94 116.7,-351.34 -64.23,-439.65 -62.64,-30.57 -180.21,-31.23 -250.09,-25.16z"/>
   <path class="fil2" d="M5752.56 4113.97c60.67,1.24 121.68,-0.68 182.35,0.24 60.03,0.91 97.85,8.94 94.74,75.28 -4.63,99.07 -135.29,66.93 -276.32,71.26l-0.77 -146.79zm-7.93 415.81c18.62,-23.19 9.57,-145.52 8.5,-177.02l144.88 1.18c23,29.94 38.92,58.76 60.3,89.09 10.88,15.44 21.03,29.36 30.09,43.35 37.38,57.7 7.44,44.4 157.85,44.41 -1.97,-14.44 -16.87,-31.83 -24.43,-42.35l-92.64 -132.2c15.82,-12.79 91.52,-25.78 110.13,-134.93 11.2,-65.76 -11.97,-150.35 -75.61,-177.76 -0.06,14.13 -19.52,-11.89 -74.28,-17.05 -93.28,-8.8 -237.11,-2.36 -336.69,-4.35l0.29 502.27 92.17 -2.62 -0.57 7.97z"/>
   <path class="fil2" d="M7278.62 4404.46c-12.53,27.47 -83.17,23.62 -116.6,23.87 -46.07,0.35 -93.6,1.31 -138.94,0.41l-0.93 -312.81c53.97,-0.68 197.5,-6.95 239.41,13.97 59.19,17.36 68.75,69.16 70.71,128.01 2.31,69.28 -6.69,118.18 -53.66,146.55zm42.31 102.26c44.07,-23.52 29.56,-15.57 55.24,-40.65 107.53,-104.97 92.32,-402.29 -82.94,-437.9 -27.39,8.77 -57.86,-1.14 -88.02,-2.59 -83.15,-4 -224.68,3.34 -285.87,-4.05 9.47,52.24 9.3,442.57 1.28,498.95 62.79,-0.41 300.76,7.7 354.17,-9.42 20.85,-6.68 26.6,-10.52 46.16,-4.34z"/>
   <path class="fil2" d="M5416.5 4136.56c7.56,6.46 2.2,-2.15 12.59,13.81 3.25,5 5.54,11.19 7.83,16.72 12.09,68.35 -14.12,104.58 -78.63,106.81 -48.59,1.67 -141.79,4.57 -187.05,-1.29l-0.06 -155.45c21.22,-2.99 200.48,-6.5 226.47,3.66l18.85 15.75zm71.55 198.83c36.65,-17.94 55.21,-57.72 59.94,-114.15 3.85,-45.93 -0.54,-109.43 -32.39,-139.07 -53.86,-26.51 -18.17,-56.41 -194.39,-58.44 -82.26,-0.94 -167.1,-1.72 -249.35,0.13l-0.61 498.26 89.3 -2.04c-3.14,-38.36 -6.09,-113.21 2.46,-151.17 78.76,-20.86 214.07,17.89 301.1,-25.14 32.68,-16.16 15.55,-15.46 23.93,-8.38z"/>
   <polygon class="fil1" points="4163.6,4527.58 4279.32,4532.03 4278.6,4013.92 4164.51,4013.83 "/>
   <path class="fil2" d="M5488.05 4335.39c-8.39,-7.08 8.74,-7.78 -23.93,8.38 -87.04,43.03 -222.34,4.28 -301.1,25.14 -8.55,37.96 -5.59,112.81 -2.46,151.17l-89.3 2.04 0.61 -498.26c82.25,-1.85 167.09,-1.08 249.35,-0.13 176.22,2.02 140.53,31.93 194.39,58.44 -23.68,-58.83 -111.28,-68.38 -194.38,-68.32 -66.96,0.05 -201.57,-7.44 -260.24,1.9l-0.5 513.67 105.54 1.01c10.2,-32.46 4.63,-117.08 2.92,-155.34 70.27,-7.11 291.67,22.54 319.11,-39.69z"/>
   <path class="fil2" d="M7320.93 4506.72c-19.56,-6.18 -25.31,-2.34 -46.16,4.34 -53.4,17.12 -291.37,9.02 -354.17,9.42 8.02,-56.38 8.2,-446.71 -1.28,-498.95 61.19,7.39 202.72,0.05 285.87,4.05 30.15,1.45 60.62,11.37 88.02,2.59 -60.66,-20.44 -304.16,-17.65 -380.02,-13.26l-0.73 514.76c69.44,4.75 150.26,0.74 218.86,0.89 88.34,0.19 111.14,1.54 189.61,-23.83z"/>
   <path class="fil2" d="M5744.63 4529.78l0.57 -7.97 -92.17 2.62 -0.29 -502.27c99.58,1.99 243.4,-4.44 336.69,4.35 54.75,5.17 74.22,31.18 74.28,17.05 -25.05,-49.25 -349.04,-26.46 -418.54,-30.35l-1.28 518.29 100.75 -1.72z"/>
   <path class="fil2" d="M7278.62 4404.46c-0.08,-18.1 9.01,10.92 -104.33,13.84 -41.97,1.08 -104.85,-2.15 -143.13,4.71l0.81 -301.91c98.07,4.44 107.8,-6.02 207.77,10.59 24.87,4.13 14.19,8.57 21.82,-1.79 -41.91,-20.93 -185.44,-14.65 -239.41,-13.97l0.93 312.81c45.33,0.9 92.87,-0.06 138.94,-0.41 33.43,-0.25 104.07,3.6 116.6,-23.87z"/>
   <path class="fil2" d="M5436.92 4167.09c-5.59,9.18 -2.4,0.2 -4.11,17.83 -13.69,140.82 -110.66,48.51 -254.15,83.85l-2.69 -149.74c44.93,3.46 93.85,2.78 139.13,2.26 38.09,-0.44 56.25,-3.55 89.35,10.85 14.21,6.18 5.25,6.43 12.07,4.42l-18.85 -15.75c-26,-10.16 -205.25,-6.65 -226.47,-3.66l0.06 155.45c45.26,5.86 138.45,2.96 187.05,1.29 64.51,-2.22 90.72,-38.46 78.63,-106.81z"/>
  </g>
 </g>
</svg>
